<svg width="343" height="218" viewBox="0 0 343 218" fill="none" xmlns="http://www.w3.org/2000/svg">
<g clip-path="url(#clip0_120_20)">
<rect width="343" height="218" rx="16" fill="#2962FF"/>
<circle r="170.5" transform="matrix(-1 0 0 1 337.5 78.5)" fill="#111E44" fill-opacity="0.1"/>
<circle r="139.5" transform="matrix(-1 0 0 1 327.5 109.5)" fill="#0E225B" fill-opacity="0.1"/>
<path d="M30.612 187.9H26.148L25.224 190H23.988L27.792 181.6H28.98L32.796 190H31.536L30.612 187.9ZM30.192 186.94L28.38 182.824L26.568 186.94H30.192ZM42.4731 181.6V190H41.4891L36.4491 183.736V190H35.2491V181.6H36.2331L41.2731 187.864V181.6H42.4731ZM48.9233 186.268L47.3873 187.828V190H46.1873V181.6H47.3873V186.292L51.9473 181.6H53.3153L49.7273 185.38L53.5433 190H52.1393L48.9233 186.268ZM56.0123 181.6H57.2123V190H56.0123V181.6ZM62.5952 182.644H59.7152V181.6H66.6632V182.644H63.7832V190H62.5952V182.644ZM79.4128 185.752H80.5648V189.028C80.1488 189.372 79.6648 189.636 79.1128 189.82C78.5608 190.004 77.9848 190.096 77.3848 190.096C76.5368 190.096 75.7728 189.912 75.0928 189.544C74.4128 189.168 73.8768 188.656 73.4848 188.008C73.1008 187.352 72.9088 186.616 72.9088 185.8C72.9088 184.984 73.1008 184.248 73.4848 183.592C73.8768 182.936 74.4128 182.424 75.0928 182.056C75.7808 181.688 76.5528 181.504 77.4088 181.504C78.0808 181.504 78.6888 181.616 79.2328 181.84C79.7848 182.056 80.2528 182.376 80.6368 182.8L79.8928 183.544C79.2208 182.896 78.4088 182.572 77.4568 182.572C76.8168 182.572 76.2408 182.712 75.7288 182.992C75.2248 183.264 74.8288 183.648 74.5408 184.144C74.2528 184.632 74.1088 185.184 74.1088 185.8C74.1088 186.408 74.2528 186.96 74.5408 187.456C74.8288 187.944 75.2248 188.328 75.7288 188.608C76.2408 188.888 76.8128 189.028 77.4448 189.028C78.1968 189.028 78.8528 188.848 79.4128 188.488V185.752ZM87.8543 190.096C87.0063 190.096 86.2423 189.912 85.5623 189.544C84.8823 189.168 84.3463 188.652 83.9543 187.996C83.5703 187.34 83.3783 186.608 83.3783 185.8C83.3783 184.992 83.5703 184.26 83.9543 183.604C84.3463 182.948 84.8823 182.436 85.5623 182.068C86.2423 181.692 87.0063 181.504 87.8543 181.504C88.6943 181.504 89.4543 181.692 90.1343 182.068C90.8143 182.436 91.3463 182.948 91.7303 183.604C92.1143 184.252 92.3063 184.984 92.3063 185.8C92.3063 186.616 92.1143 187.352 91.7303 188.008C91.3463 188.656 90.8143 189.168 90.1343 189.544C89.4543 189.912 88.6943 190.096 87.8543 190.096ZM87.8543 189.028C88.4703 189.028 89.0223 188.888 89.5103 188.608C90.0063 188.328 90.3943 187.944 90.6743 187.456C90.9623 186.96 91.1063 186.408 91.1063 185.8C91.1063 185.192 90.9623 184.644 90.6743 184.156C90.3943 183.66 90.0063 183.272 89.5103 182.992C89.0223 182.712 88.4703 182.572 87.8543 182.572C87.2383 182.572 86.6783 182.712 86.1743 182.992C85.6783 183.272 85.2863 183.66 84.9983 184.156C84.7183 184.644 84.5783 185.192 84.5783 185.8C84.5783 186.408 84.7183 186.96 84.9983 187.456C85.2863 187.944 85.6783 188.328 86.1743 188.608C86.6783 188.888 87.2383 189.028 87.8543 189.028ZM102.564 181.6V190H101.58L96.5405 183.736V190H95.3405V181.6H96.3245L101.364 187.864V181.6H102.564ZM106.279 181.6H109.819C110.707 181.6 111.495 181.776 112.183 182.128C112.871 182.48 113.403 182.976 113.779 183.616C114.163 184.248 114.355 184.976 114.355 185.8C114.355 186.624 114.163 187.356 113.779 187.996C113.403 188.628 112.871 189.12 112.183 189.472C111.495 189.824 110.707 190 109.819 190H106.279V181.6ZM109.747 188.956C110.427 188.956 111.023 188.824 111.535 188.56C112.055 188.296 112.455 187.928 112.735 187.456C113.015 186.976 113.155 186.424 113.155 185.8C113.155 185.176 113.015 184.628 112.735 184.156C112.455 183.676 112.055 183.304 111.535 183.04C111.023 182.776 110.427 182.644 109.747 182.644H107.479V188.956H109.747ZM124.617 181.6V190H123.417V186.256H118.593V190H117.393V181.6H118.593V185.212H123.417V181.6H124.617ZM133.683 187.9H129.219L128.295 190H127.059L130.863 181.6H132.051L135.867 190H134.607L133.683 187.9ZM133.263 186.94L131.451 182.824L129.639 186.94H133.263Z" fill="white"/>
<path d="M287.008 190.096C286.344 190.096 285.752 189.928 285.232 189.592C284.72 189.248 284.316 188.752 284.02 188.104C283.724 187.456 283.576 186.688 283.576 185.8C283.576 184.912 283.724 184.144 284.02 183.496C284.316 182.848 284.72 182.356 285.232 182.02C285.752 181.676 286.344 181.504 287.008 181.504C287.664 181.504 288.248 181.676 288.76 182.02C289.28 182.356 289.688 182.848 289.984 183.496C290.28 184.144 290.428 184.912 290.428 185.8C290.428 186.688 290.28 187.456 289.984 188.104C289.688 188.752 289.28 189.248 288.76 189.592C288.248 189.928 287.664 190.096 287.008 190.096ZM287.008 189.028C287.68 189.028 288.216 188.752 288.616 188.2C289.024 187.648 289.228 186.848 289.228 185.8C289.228 184.752 289.024 183.952 288.616 183.4C288.216 182.848 287.68 182.572 287.008 182.572C286.328 182.572 285.784 182.848 285.376 183.4C284.976 183.952 284.776 184.752 284.776 185.8C284.776 186.848 284.976 187.648 285.376 188.2C285.784 188.752 286.328 189.028 287.008 189.028ZM294.679 185.128C295.503 185.208 296.131 185.464 296.563 185.896C296.995 186.32 297.211 186.864 297.211 187.528C297.211 188.008 297.091 188.444 296.851 188.836C296.611 189.22 296.251 189.528 295.771 189.76C295.299 189.984 294.719 190.096 294.031 190.096C293.431 190.096 292.855 190.008 292.303 189.832C291.751 189.648 291.299 189.396 290.947 189.076L291.499 188.128C291.787 188.4 292.155 188.62 292.603 188.788C293.051 188.948 293.527 189.028 294.031 189.028C294.655 189.028 295.139 188.896 295.483 188.632C295.835 188.368 296.011 188.004 296.011 187.54C296.011 187.076 295.839 186.716 295.495 186.46C295.151 186.204 294.631 186.076 293.935 186.076H293.263V185.236L295.375 182.644H291.331V181.6H296.875V182.416L294.679 185.128ZM301.378 179.896H302.422L298.462 191.2H297.418L301.378 179.896ZM308.453 188.956V190H302.417V189.184L305.837 185.884C306.253 185.484 306.533 185.14 306.677 184.852C306.821 184.556 306.893 184.26 306.893 183.964C306.893 183.524 306.737 183.184 306.425 182.944C306.121 182.696 305.681 182.572 305.105 182.572C304.177 182.572 303.461 182.876 302.957 183.484L302.141 182.776C302.469 182.376 302.897 182.064 303.425 181.84C303.961 181.616 304.557 181.504 305.213 181.504C306.093 181.504 306.793 181.716 307.313 182.14C307.833 182.556 308.093 183.124 308.093 183.844C308.093 184.292 307.997 184.716 307.805 185.116C307.613 185.516 307.249 185.972 306.713 186.484L304.145 188.956H308.453ZM311.839 184.948C313.039 184.948 313.919 185.176 314.479 185.632C315.047 186.08 315.331 186.696 315.331 187.48C315.331 187.976 315.211 188.424 314.971 188.824C314.739 189.216 314.383 189.528 313.903 189.76C313.431 189.984 312.847 190.096 312.151 190.096C311.559 190.096 310.987 190.008 310.435 189.832C309.883 189.648 309.427 189.396 309.067 189.076L309.619 188.128C309.907 188.4 310.275 188.62 310.723 188.788C311.171 188.948 311.643 189.028 312.139 189.028C312.771 189.028 313.259 188.896 313.603 188.632C313.955 188.36 314.131 187.992 314.131 187.528C314.131 187.024 313.939 186.644 313.555 186.388C313.171 186.124 312.515 185.992 311.587 185.992H309.679L310.123 181.6H314.863V182.644H311.131L310.903 184.948H311.839Z" fill="white"/>
<path d="M25.47 30.2H29.6C30.636 30.2 31.5553 30.4053 32.358 30.816C33.1607 31.2267 33.7813 31.8053 34.22 32.552C34.668 33.2893 34.892 34.1387 34.892 35.1C34.892 36.0613 34.668 36.9153 34.22 37.662C33.7813 38.3993 33.1607 38.9733 32.358 39.384C31.5553 39.7947 30.636 40 29.6 40H25.47V30.2ZM29.516 38.782C30.3093 38.782 31.0047 38.628 31.602 38.32C32.2087 38.012 32.6753 37.5827 33.002 37.032C33.3287 36.472 33.492 35.828 33.492 35.1C33.492 34.372 33.3287 33.7327 33.002 33.182C32.6753 32.622 32.2087 32.188 31.602 31.88C31.0047 31.572 30.3093 31.418 29.516 31.418H26.87V38.782H29.516ZM43.5464 36.332C43.5464 36.4347 43.5371 36.57 43.5184 36.738H37.4984C37.5824 37.3913 37.8671 37.9187 38.3524 38.32C38.8471 38.712 39.4584 38.908 40.1864 38.908C41.0731 38.908 41.7871 38.6093 42.3284 38.012L43.0704 38.88C42.7344 39.272 42.3144 39.5707 41.8104 39.776C41.3157 39.9813 40.7604 40.084 40.1444 40.084C39.3604 40.084 38.6651 39.9253 38.0584 39.608C37.4517 39.2813 36.9804 38.8287 36.6444 38.25C36.3177 37.6713 36.1544 37.018 36.1544 36.29C36.1544 35.5713 36.3131 34.9227 36.6304 34.344C36.9571 33.7653 37.4004 33.3173 37.9604 33C38.5297 32.6733 39.1691 32.51 39.8784 32.51C40.5877 32.51 41.2177 32.6733 41.7684 33C42.3284 33.3173 42.7624 33.7653 43.0704 34.344C43.3877 34.9227 43.5464 35.5853 43.5464 36.332ZM39.8784 33.644C39.2344 33.644 38.6931 33.84 38.2544 34.232C37.8251 34.624 37.5731 35.1373 37.4984 35.772H42.2584C42.1837 35.1467 41.9271 34.638 41.4884 34.246C41.0591 33.8447 40.5224 33.644 39.8784 33.644ZM49.3467 32.51C50.0653 32.51 50.7093 32.6687 51.2787 32.986C51.848 33.3033 52.2913 33.7467 52.6087 34.316C52.9353 34.8853 53.0987 35.5433 53.0987 36.29C53.0987 37.0367 52.9353 37.6993 52.6087 38.278C52.2913 38.8473 51.848 39.2907 51.2787 39.608C50.7093 39.9253 50.0653 40.084 49.3467 40.084C48.796 40.084 48.292 39.9767 47.8347 39.762C47.3773 39.5473 46.9993 39.2347 46.7007 38.824V40H45.4127V29.612H46.7567V33.7C47.0553 33.308 47.4287 33.014 47.8767 32.818C48.3247 32.6127 48.8147 32.51 49.3467 32.51ZM49.2347 38.908C49.7107 38.908 50.1353 38.8007 50.5087 38.586C50.8913 38.362 51.19 38.054 51.4047 37.662C51.6287 37.2607 51.7407 36.8033 51.7407 36.29C51.7407 35.7767 51.6287 35.324 51.4047 34.932C51.19 34.5307 50.8913 34.2227 50.5087 34.008C50.1353 33.7933 49.7107 33.686 49.2347 33.686C48.768 33.686 48.3433 33.7933 47.9607 34.008C47.578 34.2227 47.2793 34.5307 47.0647 34.932C46.85 35.324 46.7427 35.7767 46.7427 36.29C46.7427 36.8033 46.85 37.2607 47.0647 37.662C47.2793 38.054 47.578 38.362 47.9607 38.586C48.3433 38.8007 48.768 38.908 49.2347 38.908ZM54.9556 32.58H56.2996V40H54.9556V32.58ZM55.6276 31.152C55.3663 31.152 55.147 31.068 54.9696 30.9C54.8016 30.732 54.7176 30.5267 54.7176 30.284C54.7176 30.0413 54.8016 29.836 54.9696 29.668C55.147 29.4907 55.3663 29.402 55.6276 29.402C55.889 29.402 56.1036 29.486 56.2716 29.654C56.449 29.8127 56.5376 30.0133 56.5376 30.256C56.5376 30.508 56.449 30.7227 56.2716 30.9C56.1036 31.068 55.889 31.152 55.6276 31.152ZM63.0378 39.566C62.8418 39.734 62.5991 39.8647 62.3098 39.958C62.0205 40.042 61.7218 40.084 61.4138 40.084C60.6671 40.084 60.0885 39.8833 59.6778 39.482C59.2671 39.0807 59.0618 38.5067 59.0618 37.76V33.686H57.8018V32.58H59.0618V30.956H60.4058V32.58H62.5338V33.686H60.4058V37.704C60.4058 38.1053 60.5038 38.4133 60.6998 38.628C60.9051 38.8427 61.1945 38.95 61.5678 38.95C61.9785 38.95 62.3285 38.8333 62.6178 38.6L63.0378 39.566Z" fill="white"/>
<circle cx="285" cy="38" r="14" fill="#E33A24"/>
<circle cx="305" cy="38" r="14" fill="#F8CB2E" fill-opacity="0.8"/>
<path d="M31.488 148.944L34.104 150.36L32.928 152.328L30.288 150.768L30.336 153.672H28.08L28.104 150.744L25.464 152.328L24.312 150.36L26.928 148.944L24.312 147.504L25.464 145.536L28.104 147.12L28.08 144.192H30.336L30.288 147.12L32.928 145.536L34.104 147.504L31.488 148.944ZM42.843 148.944L45.459 150.36L44.283 152.328L41.643 150.768L41.691 153.672H39.435L39.459 150.744L36.819 152.328L35.667 150.36L38.283 148.944L35.667 147.504L36.819 145.536L39.459 147.12L39.435 144.192H41.691L41.643 147.12L44.283 145.536L45.459 147.504L42.843 148.944ZM54.198 148.944L56.814 150.36L55.638 152.328L52.998 150.768L53.046 153.672H50.79L50.814 150.744L48.174 152.328L47.022 150.36L49.638 148.944L47.022 147.504L48.174 145.536L50.814 147.12L50.79 144.192H53.046L52.998 147.12L55.638 145.536L56.814 147.504L54.198 148.944ZM65.553 148.944L68.169 150.36L66.993 152.328L64.353 150.768L64.401 153.672H62.145L62.169 150.744L59.529 152.328L58.377 150.36L60.993 148.944L58.377 147.504L59.529 145.536L62.169 147.12L62.145 144.192H64.401L64.353 147.12L66.993 145.536L68.169 147.504L65.553 148.944ZM83.7161 148.944L86.3321 150.36L85.1561 152.328L82.5161 150.768L82.5641 153.672H80.3081L80.3321 150.744L77.6921 152.328L76.5401 150.36L79.1561 148.944L76.5401 147.504L77.6921 145.536L80.3321 147.12L80.3081 144.192H82.5641L82.5161 147.12L85.1561 145.536L86.3321 147.504L83.7161 148.944ZM95.0711 148.944L97.6871 150.36L96.5111 152.328L93.8711 150.768L93.9191 153.672H91.6631L91.6871 150.744L89.0471 152.328L87.8951 150.36L90.5111 148.944L87.8951 147.504L89.0471 145.536L91.6871 147.12L91.6631 144.192H93.9191L93.8711 147.12L96.5111 145.536L97.6871 147.504L95.0711 148.944ZM106.426 148.944L109.042 150.36L107.866 152.328L105.226 150.768L105.274 153.672H103.018L103.042 150.744L100.402 152.328L99.2501 150.36L101.866 148.944L99.2501 147.504L100.402 145.536L103.042 147.12L103.018 144.192H105.274L105.226 147.12L107.866 145.536L109.042 147.504L106.426 148.944ZM117.781 148.944L120.397 150.36L119.221 152.328L116.581 150.768L116.629 153.672H114.373L114.397 150.744L111.757 152.328L110.605 150.36L113.221 148.944L110.605 147.504L111.757 145.536L114.397 147.12L114.373 144.192H116.629L116.581 147.12L119.221 145.536L120.397 147.504L117.781 148.944ZM135.944 148.944L138.56 150.36L137.384 152.328L134.744 150.768L134.792 153.672H132.536L132.56 150.744L129.92 152.328L128.768 150.36L131.384 148.944L128.768 147.504L129.92 145.536L132.56 147.12L132.536 144.192H134.792L134.744 147.12L137.384 145.536L138.56 147.504L135.944 148.944ZM147.299 148.944L149.915 150.36L148.739 152.328L146.099 150.768L146.147 153.672H143.891L143.915 150.744L141.275 152.328L140.123 150.36L142.739 148.944L140.123 147.504L141.275 145.536L143.915 147.12L143.891 144.192H146.147L146.099 147.12L148.739 145.536L149.915 147.504L147.299 148.944ZM158.654 148.944L161.27 150.36L160.094 152.328L157.454 150.768L157.502 153.672H155.246L155.27 150.744L152.63 152.328L151.478 150.36L154.094 148.944L151.478 147.504L152.63 145.536L155.27 147.12L155.246 144.192H157.502L157.454 147.12L160.094 145.536L161.27 147.504L158.654 148.944ZM170.009 148.944L172.625 150.36L171.449 152.328L168.809 150.768L168.857 153.672H166.601L166.625 150.744L163.985 152.328L162.833 150.36L165.449 148.944L162.833 147.504L163.985 145.536L166.625 147.12L166.601 144.192H168.857L168.809 147.12L171.449 145.536L172.625 147.504L170.009 148.944ZM187.38 151.512C189.748 151.512 191.492 151.984 192.612 152.928C193.748 153.872 194.316 155.136 194.316 156.72C194.316 157.744 194.06 158.68 193.548 159.528C193.036 160.36 192.252 161.032 191.196 161.544C190.156 162.04 188.868 162.288 187.332 162.288C186.148 162.288 184.98 162.136 183.828 161.832C182.692 161.512 181.724 161.064 180.924 160.488L182.46 157.512C183.1 157.992 183.836 158.368 184.668 158.64C185.5 158.896 186.356 159.024 187.236 159.024C188.212 159.024 188.98 158.832 189.54 158.448C190.1 158.064 190.38 157.528 190.38 156.84C190.38 156.12 190.084 155.576 189.492 155.208C188.916 154.84 187.908 154.656 186.468 154.656H182.172L183.036 145.2H193.284V148.32H186.276L186.012 151.512H187.38ZM211.758 158.472H209.022V162H205.23V158.472H196.182V155.856L204.102 145.2H208.182L200.838 155.304H205.35V152.16H209.022V155.304H211.758V158.472ZM221.489 151.464C222.561 151.464 223.537 151.68 224.417 152.112C225.297 152.544 225.993 153.16 226.505 153.96C227.017 154.744 227.273 155.656 227.273 156.696C227.273 157.816 226.993 158.8 226.433 159.648C225.873 160.496 225.105 161.152 224.129 161.616C223.169 162.064 222.097 162.288 220.913 162.288C218.561 162.288 216.721 161.568 215.393 160.128C214.065 158.688 213.401 156.632 213.401 153.96C213.401 152.056 213.761 150.424 214.481 149.064C215.201 147.704 216.201 146.672 217.481 145.968C218.777 145.264 220.273 144.912 221.969 144.912C222.865 144.912 223.721 145.016 224.537 145.224C225.369 145.416 226.073 145.696 226.649 146.064L225.209 148.92C224.377 148.36 223.329 148.08 222.065 148.08C220.641 148.08 219.513 148.496 218.681 149.328C217.849 150.16 217.401 151.368 217.337 152.952C218.329 151.96 219.713 151.464 221.489 151.464ZM220.697 159.384C221.529 159.384 222.201 159.16 222.713 158.712C223.241 158.264 223.505 157.656 223.505 156.888C223.505 156.12 223.241 155.512 222.713 155.064C222.201 154.6 221.513 154.368 220.649 154.368C219.801 154.368 219.105 154.608 218.561 155.088C218.017 155.552 217.745 156.152 217.745 156.888C217.745 157.624 218.009 158.224 218.537 158.688C219.065 159.152 219.785 159.384 220.697 159.384ZM240.658 153.168C241.49 153.584 242.122 154.128 242.554 154.8C243.002 155.472 243.226 156.248 243.226 157.128C243.226 158.168 242.93 159.08 242.338 159.864C241.746 160.632 240.914 161.232 239.842 161.664C238.77 162.08 237.53 162.288 236.122 162.288C234.714 162.288 233.474 162.08 232.402 161.664C231.346 161.232 230.522 160.632 229.93 159.864C229.354 159.08 229.066 158.168 229.066 157.128C229.066 156.248 229.282 155.472 229.714 154.8C230.162 154.128 230.794 153.584 231.61 153.168C230.986 152.784 230.506 152.304 230.17 151.728C229.834 151.136 229.666 150.464 229.666 149.712C229.666 148.736 229.938 147.888 230.482 147.168C231.026 146.448 231.786 145.896 232.762 145.512C233.738 145.112 234.858 144.912 236.122 144.912C237.402 144.912 238.53 145.112 239.506 145.512C240.498 145.896 241.266 146.448 241.81 147.168C242.354 147.888 242.626 148.736 242.626 149.712C242.626 150.464 242.458 151.136 242.122 151.728C241.786 152.304 241.298 152.784 240.658 153.168ZM236.122 147.768C235.338 147.768 234.706 147.96 234.226 148.344C233.762 148.712 233.53 149.224 233.53 149.88C233.53 150.52 233.762 151.024 234.226 151.392C234.69 151.76 235.322 151.944 236.122 151.944C236.922 151.944 237.562 151.76 238.042 151.392C238.522 151.024 238.762 150.52 238.762 149.88C238.762 149.224 238.522 148.712 238.042 148.344C237.562 147.96 236.922 147.768 236.122 147.768ZM236.122 159.432C237.098 159.432 237.866 159.216 238.426 158.784C239.002 158.336 239.29 157.744 239.29 157.008C239.29 156.272 239.002 155.688 238.426 155.256C237.866 154.824 237.098 154.608 236.122 154.608C235.162 154.608 234.402 154.824 233.842 155.256C233.282 155.688 233.002 156.272 233.002 157.008C233.002 157.76 233.282 158.352 233.842 158.784C234.402 159.216 235.162 159.432 236.122 159.432Z" fill="white"/>
</g>
<defs>
<clipPath id="clip0_120_20">
<rect width="343" height="218" rx="16" fill="white"/>
</clipPath>
</defs>
</svg>
