<svg xmlns="http://www.w3.org/2000/svg" viewBox="0 0 2009.62 556.32"><defs><style>.cls-1{fill:#fff;}</style></defs><g id="Layer_2" data-name="Layer 2"><g id="Layer_1-2" data-name="Layer 1"><path class="cls-1" d="M613.09,104.85a350.76,350.76,0,0,1-47.7,31.62,348.81,348.81,0,0,1-47,21.52c-1.27.46-2.09.7-3.18-.44a247.49,247.49,0,0,0-49.83-39.92c6.32-1.9,12.16-3.61,18-5.42a299,299,0,0,0,98-51.74A317.45,317.45,0,0,0,616.43,27.4c8.39-9,17-17.93,26-27.4,2,6.48,3.89,12.5,5.73,18.53,5.66,18.51,12,36.82,15.71,55.89,3.45,17.75,5.38,35.57,4.4,53.75-1.63,30.26-11.48,57.3-29.94,81.26-12.9,16.74-28.7,30.39-45.68,42.76-12.54,9.13-25.64,17.41-38.93,25.38-2.34,1.41-2.74,2.69-2.11,5.33a217.79,217.79,0,0,1,5,68.2c-3.34,42.25-17.9,80.26-42.91,114.3-5.06,6.89-2.77,7-10.21,1.79-12.62-8.76-23.13-19.61-30.68-33.16-1.11-2-1-3.34.35-5.3,14.5-20.84,24.08-43.84,27.71-68.91,7.25-50-4.65-95.11-36.84-134.36-24.69-30.11-56.49-48.92-94.26-57.56a156.79,156.79,0,0,0-51.47-3.1c-34.7,3.63-65.74,16.44-92.39,39-28.71,24.29-47.54,54.87-55.93,91.7a162.58,162.58,0,0,0-4.34,42.21c1.23,33.23,11,63.72,29.93,91.14,1.38,2,1.3,3.29.21,5.25-8.37,14.9-20.35,26.25-34.34,35.73-2.65,1.79-3.47-.21-4.56-1.66A223.25,223.25,0,0,1,117,282.77c.66-2.84,0-3.89-2.24-5.23C99.79,268.47,85,259.16,71,248.58c-24.16-18.33-45.2-39.4-58-67.47A144.79,144.79,0,0,1,.61,132.53C-2.07,100.62,4.43,70.1,13.8,40Q19.62,21.24,25.37,2.5a2.83,2.83,0,0,1,1.29-2c7.46,7.86,15.2,15.65,22.51,23.82,33.67,37.6,73.92,65.5,121.33,82.93a294.29,294.29,0,0,0,30.28,9.51,14.45,14.45,0,0,1,2.22,1,241.13,241.13,0,0,0-35.77,26.52q-6.64,6-12.89,12.52a4,4,0,0,1-5.1,1.11,357.55,357.55,0,0,1-85.35-46.54c-2.39-1.78-4.74-3.62-7.07-5.47-1.5-1.2-2.07-.86-2.2,1-2.11,30.26,5.32,57.17,27.05,79.36,16,16.35,35.1,28.44,54.16,40.64,2.09,1.34,2.44-.23,3.11-1.47a223.89,223.89,0,0,1,110.57-98.89,215.41,215.41,0,0,1,58.55-15.2,232.52,232.52,0,0,1,52.54,0,218.86,218.86,0,0,1,108.58,43.89,215.44,215.44,0,0,1,59.64,68.94c1.67,3.05,2.8,3.45,5.86,1.48,15.57-10,31.13-20,45-32.49,16.65-15,28.45-32.8,32.81-55.08C614,130,615.1,110.62,613.09,104.85Z"/><path class="cls-1" d="M333.56,556.32c-50.85-.28-96.73-16.4-137.24-47.93-5.11-4-9.8-8.48-14.73-12.7-1.19-1-1.87-1.6-.11-3A108.2,108.2,0,0,0,221.91,430c7-30,4.49-58.52-13.72-84.46a71.47,71.47,0,0,0-12.46-13.36,4.15,4.15,0,0,1-1.79-3.71,143.65,143.65,0,0,1,12.88-54.11c.49-1.06.75-2.27,2.52-.93,16.42,12.44,32.6,25.09,44.49,42.31a144.44,144.44,0,0,1,23.4,57.91,167.69,167.69,0,0,1,1.89,40.61,168.85,168.85,0,0,1-18.41,66.31c-1.34,2.58-1.57,3.73,1.67,5.22a172.81,172.81,0,0,0,52.36,14.93c32.1,3.78,62.61-1.5,91.8-15.12,1.81-.84,3.13-1.27,1.75-3.89a166.66,166.66,0,0,1-18-57.32c-4.67-37.35,1.25-72.68,21.75-104.87,10.54-16.57,25-29.28,40.46-41.05,2.07-1.58,4.26-3,6.24-4.72,1.59-1.36,2.27-1.14,3.1.78A152.1,152.1,0,0,1,471.83,305c1.52,7.46,2.05,15,2.76,22.55a5.08,5.08,0,0,1-2.08,4.78c-14.92,12.83-23.68,29.31-27.46,48.39a112.44,112.44,0,0,0-.33,40.08,113.85,113.85,0,0,0,18.76,47.34,102.53,102.53,0,0,0,22.2,23.58c2,1.54,2.89,2.5.43,4.78a222,222,0,0,1-90.52,51.24,218.9,218.9,0,0,1-42.08,7.74C347,556.08,340.55,555.72,333.56,556.32Z"/><path class="cls-1" d="M935.63,298.11a51.54,51.54,0,0,1,11.1,32.55q0,26.4-18.45,41.85T876.83,388h-98.1V177.36h94.8q32.1,0,50.25,14.7T941.93,232q0,18.6-9.75,30.9T906.23,280A49,49,0,0,1,935.63,298.11ZM830,262.56h33.6q12.6,0,19.35-5.55t6.75-16.35q0-10.8-6.75-16.5t-19.35-5.7H830Zm57.75,78.15q7.05-5.85,7.05-16.95t-7.35-17.4q-7.35-6.3-20.25-6.3H830v46.5h37.8Q880.73,346.56,887.78,340.71Z"/><path class="cls-1" d="M1141.73,220.56V388h-51.3v-22.8A56.3,56.3,0,0,1,1069.28,383a64.54,64.54,0,0,1-29.55,6.75q-19.2,0-33.9-8.55A57.65,57.65,0,0,1,983,356.46q-8.1-16.2-8.1-38.1v-97.8h51v90.9q0,16.8,8.7,26.1t23.4,9.3q15,0,23.7-9.3t8.7-26.1v-90.9Z"/><path class="cls-1" d="M1229.93,166V388h-51.3V166Z"/><path class="cls-1" d="M1318.43,166V388h-51.3V166Z"/><path class="cls-1" d="M1390.43,382.56q-18.3-7.5-29.25-22.2T1349.63,325h54.6q1.2,11.7,8.1,17.85t18,6.15q11.4,0,18-5.25t6.6-14.55a17.22,17.22,0,0,0-5.25-12.9,42.35,42.35,0,0,0-12.9-8.4,207.5,207.5,0,0,0-21.75-7.5q-20.4-6.3-33.3-12.6a61.53,61.53,0,0,1-22.2-18.6q-9.3-12.3-9.3-32.1,0-29.4,21.3-46.05t55.5-16.65q34.8,0,56.1,16.65t22.8,46.35h-55.5q-.6-10.2-7.5-16.05t-17.7-5.85q-9.3,0-15,4.95t-5.7,14.25q0,10.2,9.6,15.9t30,12.3a277.45,277.45,0,0,1,33.15,13.2,63.11,63.11,0,0,1,22,18.3q9.3,12,9.3,30.9a60.64,60.64,0,0,1-9.15,32.7q-9.15,14.7-26.55,23.4t-41.1,8.7Q1408.73,390.06,1390.43,382.56Z"/><path class="cls-1" d="M1633.43,344.46V388h-26.1q-27.9,0-43.5-13.65t-15.6-44.55v-66.6h-20.4v-42.6h20.4v-40.8h51.3v40.8h33.6v42.6h-33.6v67.2q0,7.5,3.6,10.8t12,3.3Z"/><path class="cls-1" d="M1693.87,379.86a76.88,76.88,0,0,1-30.9-30q-11.25-19.5-11.25-45.6,0-25.8,11.4-45.45a77.35,77.35,0,0,1,31.2-30.15q19.8-10.5,44.4-10.5t44.4,10.5a77.35,77.35,0,0,1,31.2,30.15q11.4,19.65,11.4,45.45t-11.55,45.45a78.1,78.1,0,0,1-31.5,30.15q-20,10.5-44.55,10.5T1693.87,379.86Zm69.3-44.7q10.35-10.8,10.35-30.9t-10-30.9a32.48,32.48,0,0,0-24.75-10.8q-15,0-24.9,10.65t-9.9,31.05q0,20.1,9.75,30.9a31.56,31.56,0,0,0,24.45,10.8A33.42,33.42,0,0,0,1763.17,335.16Z"/><path class="cls-1" d="M1952,388l-32.1-46.5-27,46.5h-55.5l55.2-85.5-56.7-81.9h57.6l32.1,46.2,27-46.2h55.5l-56.1,84.3,57.6,83.1Z"/></g></g></svg>